<?xml version="1.0" standalone="no"?>
<!DOCTYPE svg PUBLIC "-//W3C//DTD SVG 20010904//EN"
 "http://www.w3.org/TR/2001/REC-SVG-20010904/DTD/svg10.dtd">
<svg version="1.0" xmlns="http://www.w3.org/2000/svg"
 width="270.000000pt" height="270.000000pt" viewBox="0 0 270.000000 270.000000"
 preserveAspectRatio="xMidYMid meet">
<metadata>
Created by potrace 1.11, written by Peter Selinger 2001-2013
</metadata>
<g transform="translate(0.000000,270.000000) scale(0.100000,-0.100000)"
fill="#000000" stroke="none">
<path d="M0 1350 l0 -1350 1350 0 1350 0 0 1350 0 1350 -1350 0 -1350 0 0
-1350z m795 424 c69 -24 155 -111 182 -184 12 -30 20 -56 19 -57 -3 -4 -209
-34 -210 -31 -29 76 -73 117 -133 125 -84 11 -160 -40 -184 -125 -20 -66 -17
-225 4 -288 57 -169 279 -165 313 5 4 17 9 31 13 31 25 -2 204 -30 207 -33 2
-2 -2 -22 -10 -44 -39 -111 -94 -175 -191 -220 -55 -26 -70 -28 -175 -28 -109
0 -118 2 -180 32 -76 37 -94 52 -143 116 -53 70 -77 157 -77 281 0 160 33 255
117 339 41 42 111 82 170 97 57 14 220 5 278 -16z m941 -2 c23 -12 57 -39 76
-61 l35 -41 32 34 c139 144 389 120 465 -44 20 -42 21 -65 24 -382 l3 -338
-110 0 -110 0 -3 303 c-3 262 -5 306 -20 333 -21 39 -66 59 -115 51 -52 -9
-84 -35 -113 -93 -25 -48 -25 -54 -28 -321 l-4 -273 -109 0 -109 0 0 283 c0
155 -5 300 -10 321 -11 51 -38 76 -88 83 -63 8 -125 -26 -154 -85 -22 -45 -23
-58 -26 -324 l-3 -278 -110 0 -109 0 0 420 0 420 100 0 100 0 0 -57 0 -57 43
41 c41 40 86 68 137 84 45 15 162 4 206 -19z"/>
</g>
</svg>
